<svg xmlns="http://www.w3.org/2000/svg" viewBox="0 0 48 48">
  <path fill="#FFC107" d="M43.6 20.1H42V20H24v8h11.3C33.7 32.8 29.3 36 24 36c-6.6 0-12-5.4-12-12s5.4-12 12-12c3.1 0 5.8 1.1 7.9 3l5.7-5.7C34.2 6.5 29.4 4 24 4 12.9 4 4 12.9 4 24s8.9 20 20 20 20-8.9 20-20c0-1.3-.1-2.7-.4-3.9z"/>
  <path fill="#FF3D00" d="M6.3 14.7l6.6 4.8C14.5 16.1 18.9 13 24 13c3.1 0 5.8 1.1 7.9 3l5.7-5.7C34.2 6.5 29.4 4 24 4 16.3 4 9.7 8.3 6.3 14.7z"/>
  <path fill="#4CAF50" d="M24 44c5.2 0 9.9-2 13.4-5.2l-6.2-5.2C29.3 35.3 26.8 36 24 36c-5.2 0-9.6-3.1-11.3-7.6l-6.5 5C9.5 39.5 16.2 44 24 44z"/>
  <path fill="#1976D2" d="M43.6 20.1H42V20H24v8h11.3c-.8 2.3-2.4 4.2-4.4 5.6l6.2 5.2C36.9 37 44 32 44 24c0-1.3-.1-2.7-.4-3.9z"/>
</svg>
